#N canvas 232 81 1264 719 12;
#X obj 377 207 osc~;
#X floatatom 397 115 5 0 0 0 - - - 0;
#X obj 508 242 osc~;
#X obj 581 76 osc~;
#X obj 598 209 osc~;
#X obj 497 34 osc~;
#X obj 550 34 osc~;
#X obj 599 36 osc~, f 5;
#X floatatom 280 160 5 0 0 0 - - - 0;
#X obj 284 198 osc~;
#X obj 269 241 t b b;
#X msg 269 265 s 0 1 2 3 4 5;
#X obj 269 289 bng 19 250 50 0 empty empty empty 0 -10 0 12 #fcfcfc #000000 #000000;
#X obj 312 288 bng 19 250 50 0 empty empty empty 0 -10 0 12 #fcfcfc #000000 #000000;
#X obj 435 404 dac~, f 5;
#X obj 459 243 osc~;
#X obj 530 198 *~ 1.5;
#X obj 436 203 *~ 1.25;
#X obj 596 173 *~ 1.833;
#X obj 693 277 print;
#X obj 682 38 vsl 19 162 0 127 0 0 empty empty empty 0 -9 0 12 #fcfcfc #000000 #000000 0 1;
#X floatatom 685 219 5 0 0 0 - - - 0;
#X floatatom 517 317 5 0 0 0 - - - 0;
#X obj 447 354 *~;
#X text 76 30 This patch is exploring the use of audio and control objects \, number boxes \, and message boxes.;
#X obj 693 249 / 127;
#X obj 731 36 vsl 19 162 0 1 0 0 empty empty empty 0 -9 0 12 #fcfcfc #000000 #000000 0 1;
#X text 782 41 The first vertical slider adjusts the numbers outside the vertical slider. The second vertical slider has its Properties adjusted so that its minimum value is still 0 and its maximum values is 1 Both do the same thing.;
#X text 20 91 This group of objects on the lower left is just an experiment. It does not really do anything.;
#X msg 591 387 Stop;
#X obj 194 574 tgl 19 0 empty empty empty 0 -10 0 12 #fcfcfc #000000 #000000 0 1;
#X text 65 499 Here is a little section that allows you to turn the DSP on and off within the patch itself. It means you do not have to go to the main Pd window or the Media pull down menu to access the DSP Toggle.;
#X msg 195 626 \; pd dsp \$1;
#X msg 281 594 \; pd dsp \$1;
#X text 350 621 Both of these message boxes work when connected to the toggle. I suspect that the second is the standard way of presenting this way of turning on and off the DSP due to the message box being larger and is is easier to tell what that message does.;
#X connect 0 0 23 0;
#X connect 1 0 0 0;
#X connect 1 0 16 0;
#X connect 1 0 17 0;
#X connect 1 0 18 0;
#X connect 2 0 23 0;
#X connect 4 0 23 0;
#X connect 8 0 9 0;
#X connect 8 0 10 0;
#X connect 10 0 11 0;
#X connect 11 0 12 0;
#X connect 11 0 13 0;
#X connect 15 0 23 0;
#X connect 16 0 2 0;
#X connect 17 0 15 0;
#X connect 17 0 15 1;
#X connect 18 0 4 0;
#X connect 20 0 21 0;
#X connect 21 0 25 0;
#X connect 22 0 23 1;
#X connect 23 0 14 0;
#X connect 23 0 14 1;
#X connect 25 0 19 0;
#X connect 25 0 23 1;
#X connect 26 0 23 1;
#X connect 30 0 32 0;
