#N canvas 208 241 1051 609 12;
#X obj 226 161 bng 19 250 50 0 empty empty empty 0 -10 0 12 #fcfcfc #000000 #000000;
#X obj 573 124 vsl 19 162 1.27 127 1 0 empty empty Log\ Slider 0 -9 0 12 #fcfcfc #000000 #000000 0 1;
#X obj 456 111 vsl 19 162 0 127 0 0 empty empty Lin\ Slider 0 -9 0 12 #fcfcfc #000000 #000000 0 1;
#X obj 459 318 print;
#X obj 572 309 print;
#X text 65 19 Remember that you can change the properties of the things on the screen by accessing the properties menu. Right click or on a Mac MBP \, double finger click to access the hidden menu and click Properties. You can change the size of the objects as well as other properties.;
#X floatatom 374 298 5 0 0 0 - - - 0;
#X floatatom 639 293 5 0 0 0 - - - 0;
#X text 535 366 ONE TRICK TO GAIN FINE CONTROL OVER THE VALUES OF OBJECTS THAT ALLOW YOU TO CHANGE NUMBER IS TO PRESS THE SHIFT KEY AS YOU MOVE THE SLIDER.;
#X obj 268 457 makenote, f 12;
#X obj 700 313 hsl 162 19 0 16 0 0 empty empty empty -2 -10 0 12 #fcfcfc #000000 #000000 0 1;
#X floatatom 701 337 5 0 0 0 - - - 0;
#X obj 271 523 noteout;
#X floatatom 397 342 5 0 0 0 - - - 0;
#X text 607 151 Moving the position of this slider to about mid level will result in a number around 14 That is a big difference compared to the linear slide to the left which will give about 64 The default maximum for both is 127 Note that a logarithmic slider cannot go below 1.27. That is the nature or logarithmic numbers \, at least applied to a scale.;
#X text 512 438 One trick you can do to make some objects longer is to move the cursor over the right end of the object until a double ended cursor appears. Then click and drag the cursor to make it longer. An object is often not long enough to have room for all that you need to place in it. You can also drag it inward to shorten its width and drop the botom down. This applies to the makenote object.;
#X text 223 429 note #;
#X text 283 425 velocity;
#X text 364 436 duration;
#X text 496 562 When using patches like this \, the target instrument's settings greatly affect how these settings affect it.;
#X text 27 543 noteout is not covered at this point but I have used it before.;
#X connect 1 0 4 0;
#X connect 1 0 7 0;
#X connect 1 0 9 1;
#X connect 2 0 3 0;
#X connect 2 0 6 0;
#X connect 2 0 9 0;
#X connect 9 0 12 0;
#X connect 9 1 12 1;
#X connect 10 0 11 0;
#X connect 13 0 9 2;
