#N canvas 324 357 1046 636 12;
#X msg 184 221 110;
#X msg 241 221 220;
#X msg 287 219 440;
#X obj 187 268 osc~;
#X obj 193 324 *~;
#X obj 195 370 dac~;
#X obj 534 127 hsl 162 19 0 1 0 0 empty empty empty -2 -10 0 12 #fcfcfc #000000 #000000 0 1;
#X floatatom 489 156 5 0 0 0 - - - 0;
#X text 587 162 Not all objects that produce numbers affect all other objects. The horizontal slider above has no effect on the number in the message box. Nor does the number produced by the slider get transferred through the message box. HOWEVER \, WHEN THE VOLUME IS TURNED OFF BY CLICKING ON THE MESSAGE BOX CONTAINING THE 0 \, AND THEN THE HORIZONTAL SLIDER IS MOVED OR CLICKED ON \, THE VOLUME TURNS ON AGAIN. IT IS AS IF THE CLICKING ON OR MOVING THE SLIDER IS SENDING A BANG.;
#X obj 192 14 tgl 19 0 empty empty empty 0 -10 0 12 #fcfcfc #000000 #000000 0 1;
#X text 602 38 This version uses a random setup which is triggered by a metro object to send bangs to messages to test that situation. This little bit is not part of the book yet. I learned it from another source.;
#X obj 192 38 metro 500;
#X obj 190 68 bng 19 250 50 0 empty empty empty 0 -10 0 12 #fcfcfc #000000 #000000;
#X obj 189 96 random 3;
#X obj 189 131 sel 0 1 2, f 21;
#X obj 189 169 bng 19 250 50 0 empty empty empty 0 -10 0 12 #fcfcfc #000000 #000000;
#X obj 236 169 bng 19 250 50 0 empty empty empty 0 -10 0 12 #fcfcfc #000000 #000000;
#X obj 286 165 bng 19 250 50 0 empty empty empty 0 -10 0 12 #fcfcfc #000000 #000000;
#X obj 393 101 loadbang;
#X obj 271 268 line~;
#X msg 392 257 0 30;
#X text 490 320 There are some extras added into this patch that go beyond the last patch by this name. 1) [Toggle] > [metro 500] > [bang] > [random 3] > [sel 0 1 2] THIS PARTICULAR section allows a random selection of the different frequencies to be sent to the [osc~]. 2) [loadbang] > [0 \, 0.8 100[ > [line~] THIS PARTICULAR section allows for the volume of the patch to automatically be turned on when the patch loads. However \, the pop on loadup is not there because of the audio rate ramp formed by the message box [0 \, 0.8 100[ that feeds into the [line~]. The [0 30[ part allows for the sound to be turned off by setting the target volume to 0 at a rate of 30ms.;
#X msg 358 228 0 \, 0.4 100;
#X connect 0 0 3 0;
#X connect 1 0 3 0;
#X connect 2 0 3 0;
#X connect 3 0 4 0;
#X connect 4 0 5 0;
#X connect 4 0 5 1;
#X connect 6 0 7 0;
#X connect 7 0 22 0;
#X connect 9 0 11 0;
#X connect 11 0 12 0;
#X connect 12 0 13 0;
#X connect 13 0 14 0;
#X connect 14 0 15 0;
#X connect 14 1 16 0;
#X connect 14 2 17 0;
#X connect 15 0 0 0;
#X connect 16 0 1 0;
#X connect 17 0 2 0;
#X connect 18 0 22 0;
#X connect 19 0 4 1;
#X connect 20 0 19 0;
#X connect 22 0 19 0;
