#N canvas 324 357 800 284 12;
#X msg 75 31 110;
#X msg 132 31 220;
#X msg 178 29 440;
#X obj 78 78 osc~;
#X msg 139 81 0.4;
#X msg 186 82 0;
#X obj 84 134 *~;
#X obj 86 180 dac~;
#X obj 247 8 hsl 162 19 0 1 0 0 empty empty empty -2 -10 0 12 #fcfcfc #000000 #000000 0 1;
#X floatatom 251 36 5 0 0 0 - - - 0;
#X text 347 53 Not all objects that produce numbers affect all other objects. The horizontal slider above has no effect on the number in the message box. Nor does the number produced by the slider get transferred through the message box. HOWEVER \, WHEN THE VOLUME IS TURNED OFF BY CLICKING ON THE MESSAGE BOX CONTAINING THE 0 \, AND THEN THE HORIZONTAL SLIDER IS MOVED OR CLICKED ON \, THE VOLUME TURNS ON AGAIN. IT IS AS IF THE CLICKING ON OR MOVING THE SLIDER IS SENDING A BANG.;
#X connect 0 0 3 0;
#X connect 1 0 3 0;
#X connect 2 0 3 0;
#X connect 3 0 6 0;
#X connect 4 0 6 1;
#X connect 5 0 6 1;
#X connect 6 0 7 0;
#X connect 6 0 7 1;
#X connect 8 0 9 0;
#X connect 9 0 4 0;
