#N canvas 324 357 1347 637 12;
#X msg 50 409 110;
#X msg 90 408 220;
#X msg 125 407 440;
#X obj 53 456 osc~;
#X obj 59 512 *~;
#X obj 51 547 dac~;
#X obj 56 256 bng 19 250 50 0 empty empty empty 0 -10 0 12 #fcfcfc #000000 #000000;
#X obj 50 367 bng 19 250 50 0 empty empty empty 0 -10 0 12 #fcfcfc #000000 #000000;
#X obj 89 366 bng 19 250 50 0 empty empty empty 0 -10 0 12 #fcfcfc #000000 #000000;
#X obj 128 366 bng 19 250 50 0 empty empty empty 0 -10 0 12 #fcfcfc #000000 #000000;
#X obj 537 381 loadbang;
#X obj 160 461 line~;
#X msg 456 434 0 40;
#X msg 376 438 0 \, 0.4 50;
#X obj 58 226 metro 100;
#X obj 184 188 tgl 19 0 empty empty empty 0 -10 0 12 #fcfcfc #000000 #000000 0 1;
#X obj 787 172 tgl 19 0 empty empty empty 0 -10 0 12 #fcfcfc #000000 #000000 0 1;
#X obj 789 221 metro 100;
#X obj 557 149 hsl 162 19 0 2000 0 0 empty empty Metronome\ time\ in\ ms -2 -10 0 12 #fcfcfc #000000 #000000 0 1;
#X floatatom 528 199 14 0 0 0 - - - 0;
#X obj 786 254 bng 19 250 50 0 empty empty empty 0 -10 0 12 #fcfcfc #000000 #000000;
#X obj 798 365 bng 19 250 50 0 empty empty empty 0 -10 0 12 #fcfcfc #000000 #000000;
#X obj 840 366 bng 19 250 50 0 empty empty empty 0 -10 0 12 #fcfcfc #000000 #000000;
#X obj 883 365 bng 19 250 50 0 empty empty empty 0 -10 0 12 #fcfcfc #000000 #000000;
#X msg 794 405 110;
#X msg 846 400 220;
#X msg 893 403 440;
#X obj 797 454 osc~;
#X obj 795 492 *~;
#X obj 1261 239 loadbang;
#X msg 1204 375 0 \, 0.4 50;
#X msg 1279 376 0 40;
#X obj 1170 440 line~;
#X obj 800 536 dac~;
#X obj 667 71 bng 19 250 50 0 empty empty empty 0 -10 0 12 #fcfcfc #000000 #000000;
#X text 117 513 When using this patch and switching between sides \, you have to select the message boxes to mute the sound and activate the sound on the other side - IF they are both not running at the same time. Otherwise \, you get the inactive side droning \, which can be interesting \, although a little boring when there is no movement in the sound.;
#X text 881 504 An interesting side note is that you can run the two sides starting at different times for an interesting effect of two note chords that get created randomly.;
#X text 82 29 This version uses some [bang]s with the word "bang" instead of the visual. I will also throw in a [b] or two or more.;
#X obj 164 362 bang;
#X obj 208 365 b;
#X obj 929 368 b;
#X obj 979 369 b;
#X msg 161 409 566.67;
#X msg 217 411 696.67;
#X obj 242 367 b;
#X obj 274 369 b;
#X obj 309 369 b;
#X msg 277 410 770;
#X msg 315 410 843.33;
#X msg 380 410 880;
#X obj 55 284 random 8;
#X obj 55 319 sel 0 1 2 3 4 5 6 7, f 53;
#X obj 794 288 random 8;
#X obj 796 327 sel 0 1 2 3 4 5 6 7, f 44;
#X obj 1020 369 b;
#X obj 1054 369 b;
#X obj 1086 369 b;
#X msg 938 402 566.67;
#X msg 993 404 696.67;
#X msg 1053 405 770;
#X msg 1091 403 843.33;
#X msg 1154 405 880;
#X text 657 572 NOW FOR SOMETHING COMPLETELY DIFFERENT! Not really. I just wanted to say that... I will try a ramp envelope in the next iteration of this patch to see how that sounds. Then maybe a different waveform.;
#X connect 0 0 3 0;
#X connect 1 0 3 0;
#X connect 2 0 3 0;
#X connect 3 0 4 0;
#X connect 4 0 5 0;
#X connect 4 0 5 1;
#X connect 6 0 50 0;
#X connect 7 0 0 0;
#X connect 8 0 1 0;
#X connect 9 0 2 0;
#X connect 10 0 13 0;
#X connect 11 0 4 1;
#X connect 12 0 11 0;
#X connect 13 0 11 0;
#X connect 14 0 6 0;
#X connect 15 0 14 0;
#X connect 16 0 17 0;
#X connect 17 0 20 0;
#X connect 18 0 14 1;
#X connect 18 0 17 1;
#X connect 18 0 19 0;
#X connect 20 0 52 0;
#X connect 21 0 24 0;
#X connect 22 0 25 0;
#X connect 23 0 26 0;
#X connect 24 0 27 0;
#X connect 25 0 27 0;
#X connect 26 0 27 0;
#X connect 27 0 28 0;
#X connect 28 0 33 0;
#X connect 28 0 33 1;
#X connect 29 0 30 0;
#X connect 30 0 32 0;
#X connect 31 0 32 0;
#X connect 32 0 28 1;
#X connect 34 0 16 0;
#X connect 34 0 15 0;
#X connect 38 0 42 0;
#X connect 39 0 43 0;
#X connect 40 0 57 0;
#X connect 41 0 58 0;
#X connect 42 0 3 0;
#X connect 43 0 3 0;
#X connect 44 0 47 0;
#X connect 45 0 48 0;
#X connect 46 0 49 0;
#X connect 47 0 3 0;
#X connect 48 0 3 0;
#X connect 49 0 3 0;
#X connect 50 0 51 0;
#X connect 51 0 7 0;
#X connect 51 1 8 0;
#X connect 51 2 9 0;
#X connect 51 3 38 0;
#X connect 51 4 39 0;
#X connect 51 5 44 0;
#X connect 51 6 45 0;
#X connect 51 7 46 0;
#X connect 52 0 53 0;
#X connect 53 0 21 0;
#X connect 53 1 22 0;
#X connect 53 2 23 0;
#X connect 53 3 40 0;
#X connect 53 4 41 0;
#X connect 53 5 54 0;
#X connect 53 6 55 0;
#X connect 53 7 56 0;
#X connect 54 0 59 0;
#X connect 55 0 60 0;
#X connect 56 0 61 0;
#X connect 57 0 27 0;
#X connect 58 0 27 0;
#X connect 59 0 27 0;
#X connect 60 0 27 0;
#X connect 61 0 27 0;
