#N canvas 63 93 1654 829 12;
#X text 100 16 This patch is going to start quite simple. It shows the use of the [radio] \, [toggle] \, and [list] objects.;
#X obj 113 110 tgl 19 0 empty empty Click\ Toggle\ to\ Activate/Deactivate 0 -10 0 12 #fcfcfc #000000 #000000 0 1;
#X obj 113 134 metro 500;
#X obj 112 163 random 1000;
#X floatatom 112 190 5 0 0 0 - - - 0;
#X floatatom 422 105 5 0 1 2 Upper\ Limit\ is\ 1\ Change\ to\ 1\ to\ Activate - - 0;
#X obj 424 135 tgl 19 0 empty empty empty 0 -10 0 12 #fcfcfc #000000 #000000 0 1;
#X obj 426 166 metro 400;
#X floatatom 436 228 5 0 0 0 - - - 0;
#X obj 429 198 random 2000;
#X text 532 110 The problme I have with this method is that once you keep scrolling with the cursor in the number box \, it keeps sending a change signal to the toggle so it propogates through the chain and the numbers keep happening. There is very likely a better way \, other than just using the toggle \, to do this.;
#X obj 693 57 hsl 162 19 0 1 0 0 empty empty This\ slider\ at\ 0/1\ produces\ the\ same\ problem -2 -10 0 12 #fcfcfc #000000 #000000 0 1;
#X obj 1037 62 hsl 162 19 0 127 0 0 empty empty This\ one\ too\,\ range\ 0\ to\ 127\,\ default -2 -10 0 12 #fcfcfc #000000 #000000 0 1;
#X text 1027 113 THERE IS LIKELY A WAY TO ADD AN IF TYPE STRUCTURE TO ACCOUNT FOR ANY CHANGE. MAYBE ONLY ACCEPTING a 0 OR 1;
#X text 120 291 Next we have the horizontal and vertical radio buttons. See the outputs in the respective number boxes.;
#X obj 107 357 hradio 19 1 0 8 empty empty empty 0 -10 0 12 #fcfcfc #000000 #000000 0;
#X floatatom 107 381 5 0 0 0 - - - 0;
#X obj 335 351 vradio 19 1 0 8 empty empty empty 0 -10 0 12 #fcfcfc #000000 #000000 0;
#X floatatom 335 508 5 0 0 0 - - - 0;
#X text 396 353 These have integer outputs. The first and second positions would work well for the 0 and 1 conditions for the above. As with all of thesde HID objects and other objects \, you can change the Properties. See below.;
#X obj 469 427 vradio 19 1 0 2 empty empty empty 0 -10 0 12 #fcfcfc #000000 #000000 0;
#X floatatom 470 479 5 0 0 0 - - - 0;
#X obj 561 450 hradio 19 1 0 2 empty empty This\ will\ do\ nicely\ for\ the\ problem\ above 0 -10 0 12 #fcfcfc #000000 #000000 0;
#X floatatom 563 479 5 0 0 0 - - - 0;
#X text 910 306 One solution for the issue with the slider problems with the signal feeding into the [Toggle].;
#X obj 901 373 hradio 19 1 0 2 empty empty Change\ #\ cells\ to\ 2\,\ outputs\ 0\,\ 1 0 -10 0 12 #fcfcfc #000000 #000000 0;
#X floatatom 904 405 5 0 0 0 - - - 0;
#X obj 906 438 tgl 19 0 empty empty empty 0 -10 0 12 #fcfcfc #000000 #000000 0 1;
#X obj 906 462 metro 500;
#X obj 906 495 random 1000;
#X floatatom 906 522 5 0 0 0 - - - 0;
#X text 1009 389 This solution still allows for multiple clicks to send signals over and over. However \, because it is a click that is used to change the option \, it is easy to only click once to make the change in this situation. If more control is needed \, more stringent control \, probably using something like a time delay could be used. This would be like debouncing a mechanical button with electronics using a capacitor or using programming in a microcontroller.;
#X text 149 564 Here is a list element. More on lists will be provided in 2.13.;
#X listbox 153 619 20 0 0 2 A\ list\ element.\ Let's\ experiment\ a\ little. - - 0;
#X listbox 422 770 20 0 0 0 - - - 0;
#X obj 368 626 hradio 19 1 0 8 empty empty empty 0 -10 0 12 #fcfcfc #000000 #000000 0;
#X obj 332 630 vradio 19 1 0 2 empty empty empty 0 -10 0 12 #fcfcfc #000000 #000000 0;
#X obj 594 700 hradio 19 1 0 8 empty empty empty 0 -10 0 12 #fcfcfc #000000 #000000 0;
#X obj 563 734 random;
#X obj 709 627 random 8;
#X obj 714 567 tgl 19 0 empty empty empty 0 -10 0 12 #fcfcfc #000000 #000000 0 1;
#X floatatom 613 763 5 0 0 0 - - - 0;
#X floatatom 723 666 5 0 0 0 - - - 0;
#X obj 872 635 random;
#X floatatom 868 670 5 0 0 0 - - - 0;
#X floatatom 880 593 5 0 0 0 - - - 0;
#X obj 713 596 metro 1000;
#X obj 563 586 tgl 19 0 empty empty empty 0 -10 0 12 #fcfcfc #000000 #000000 0 1;
#X obj 566 624 metro 1000;
#X text 981 564 The end goal is to provide something to show in the list element below. The first two radio objects are simple select to change situations. The vertical one has boxes for 0 and 1 The horizontal one has boxes for 0 to 7 The next section of the patch has a toggle object to activate a [metro 1000] object that sends out pulses every 1000ms. It feeds into the [random] object below. That [random] object has a number box to confirm the output and that output is also sent to the list object. There is another [toggle] > [metro 1000] > [random 8] > [horizontal radio \, 8 positions] > [random righgt inlet] section. This section randomly selects a number from the horizontal radio element which sends that number to the next [random] element which sets the number of random elements to select from. The other section of the number box > [random right inlet] > number box was just and experiment to see that would happen with that situation. The whole thing is a little convoluted but shows what happens with those elements.;
#X connect 1 0 2 0;
#X connect 2 0 3 0;
#X connect 3 0 4 0;
#X connect 5 0 6 0;
#X connect 6 0 7 0;
#X connect 7 0 9 0;
#X connect 9 0 8 0;
#X connect 11 0 5 0;
#X connect 12 0 5 0;
#X connect 15 0 16 0;
#X connect 17 0 18 0;
#X connect 20 0 21 0;
#X connect 22 0 23 0;
#X connect 25 0 26 0;
#X connect 26 0 27 0;
#X connect 27 0 28 0;
#X connect 28 0 29 0;
#X connect 29 0 30 0;
#X connect 35 0 34 0;
#X connect 36 0 34 0;
#X connect 37 0 38 1;
#X connect 38 0 34 0;
#X connect 38 0 41 0;
#X connect 39 0 42 0;
#X connect 39 0 37 0;
#X connect 40 0 46 0;
#X connect 43 0 44 0;
#X connect 45 0 43 1;
#X connect 46 0 39 0;
#X connect 46 0 43 0;
#X connect 47 0 48 0;
#X connect 48 0 38 0;
