#N canvas 324 357 1347 637 12;
#X msg 295 414 110;
#X msg 352 414 220;
#X msg 398 412 440;
#X obj 298 461 osc~;
#X obj 304 517 *~;
#X obj 306 563 dac~;
#X obj 546 221 hsl 162 19 0 1 0 0 empty empty empty -2 -10 0 12 #fcfcfc #000000 #000000 0 1;
#X floatatom 503 244 5 0 0 0 - - - 0;
#X obj 301 261 bng 19 250 50 0 empty empty empty 0 -10 0 12 #fcfcfc #000000 #000000;
#X obj 300 289 random 3;
#X obj 300 324 sel 0 1 2, f 21;
#X obj 132 367 bng 19 250 50 0 empty empty empty 0 -10 0 12 #fcfcfc #000000 #000000;
#X obj 179 367 bng 19 250 50 0 empty empty empty 0 -10 0 12 #fcfcfc #000000 #000000;
#X obj 229 363 bng 19 250 50 0 empty empty empty 0 -10 0 12 #fcfcfc #000000 #000000;
#X obj 455 206 loadbang;
#X obj 405 466 line~;
#X text 82 29 This patch is based on the p63_message_boxes.pd patches. However \, with this patch I want to explore the [bang] object. [bang] can have the box with the circle in it that chnages as it is activated. It can also be the word or the letter "b" in an object box. But I have also found that a bang can be implied when other objects are activated. It seems a bang is not always necessary.;
#X msg 579 422 0 40;
#X msg 469 421 0 \, 0.4 50;
#X obj 303 231 metro 100;
#X obj 303 187 tgl 19 0 empty empty empty 0 -10 0 12 #fcfcfc #000000 #000000 0 1;
#X obj 787 172 tgl 19 0 empty empty empty 0 -10 0 12 #fcfcfc #000000 #000000 0 1;
#X obj 789 221 metro 100;
#X obj 557 149 hsl 162 19 0 2000 0 0 empty empty Metronome\ time\ in\ ms -2 -10 0 12 #fcfcfc #000000 #000000 0 1;
#X floatatom 535 192 14 0 0 0 - - - 0;
#X obj 786 254 bng 19 250 50 0 empty empty empty 0 -10 0 12 #fcfcfc #000000 #000000;
#X obj 794 288 random 3;
#X obj 796 327 sel 0 1 2, f 18;
#X obj 798 365 bng 19 250 50 0 empty empty empty 0 -10 0 12 #fcfcfc #000000 #000000;
#X obj 840 366 bng 19 250 50 0 empty empty empty 0 -10 0 12 #fcfcfc #000000 #000000;
#X obj 883 365 bng 19 250 50 0 empty empty empty 0 -10 0 12 #fcfcfc #000000 #000000;
#X msg 794 405 110;
#X msg 846 400 220;
#X msg 893 403 440;
#X obj 796 445 osc~;
#X obj 795 492 *~;
#X obj 941 195 loadbang;
#X msg 999 377 0 \, 0.4 50;
#X msg 1102 378 0 40;
#X obj 984 413 line~;
#X obj 800 536 dac~;
#X obj 667 71 bng 19 250 50 0 empty empty empty 0 -10 0 12 #fcfcfc #000000 #000000;
#X text 362 518 When using this patch and switching between sides \, you have to select the message boxes to mute the sound and activate the sound on the other side - IF they are both not running at the same time. Otherwise \, you get the inactive side droning \, which can be interesting \, although a little boring when there is no movement in the sound.;
#X text 753 13 As far as I can tell \, there is no difference to my ears between the two sides of the patch. The only real difference between the two sides is that the left side has the [sel 0 1 2] object connected directly to the frequencies while the right side has the [bang] between the [sel 0 1 2] and the frequencies. On the left \, the [bang] objects are there to help with the visuals. So \, in this case \, the [bang]s are for visuals \, which actually helps to make sure things are operating properly.;
#X text 881 504 An interesting side note is that you can run the two sides starting at different times for an interesting effect of two note chords that get created randomly.;
#X connect 0 0 3 0;
#X connect 1 0 3 0;
#X connect 2 0 3 0;
#X connect 3 0 4 0;
#X connect 4 0 5 0;
#X connect 4 0 5 1;
#X connect 6 0 7 0;
#X connect 7 0 18 0;
#X connect 8 0 9 0;
#X connect 9 0 10 0;
#X connect 10 0 11 0;
#X connect 10 0 0 0;
#X connect 10 1 12 0;
#X connect 10 1 1 0;
#X connect 10 2 13 0;
#X connect 10 2 2 0;
#X connect 14 0 18 0;
#X connect 15 0 4 1;
#X connect 17 0 15 0;
#X connect 18 0 15 0;
#X connect 19 0 8 0;
#X connect 20 0 19 0;
#X connect 21 0 22 0;
#X connect 22 0 25 0;
#X connect 23 0 19 1;
#X connect 23 0 22 1;
#X connect 23 0 24 0;
#X connect 25 0 26 0;
#X connect 26 0 27 0;
#X connect 27 0 28 0;
#X connect 27 1 29 0;
#X connect 27 2 30 0;
#X connect 28 0 31 0;
#X connect 29 0 32 0;
#X connect 30 0 33 0;
#X connect 31 0 34 0;
#X connect 32 0 34 0;
#X connect 33 0 34 0;
#X connect 34 0 35 0;
#X connect 35 0 40 0;
#X connect 35 0 40 1;
#X connect 36 0 37 0;
#X connect 37 0 39 0;
#X connect 38 0 39 0;
#X connect 39 0 35 1;
#X connect 41 0 21 0;
#X connect 41 0 20 0;
