#N canvas 302 96 1475 876 12;
#X msg 50 409 110;
#X msg 90 408 220;
#X msg 125 407 440;
#X obj 59 512 *~;
#X obj 51 547 dac~;
#X obj 56 256 bng 19 250 50 0 empty empty empty 0 -10 0 12 #fcfcfc #000000 #000000;
#X obj 50 367 bng 19 250 50 0 empty empty empty 0 -10 0 12 #fcfcfc #000000 #000000;
#X obj 89 366 bng 19 250 50 0 empty empty empty 0 -10 0 12 #fcfcfc #000000 #000000;
#X obj 128 366 bng 19 250 50 0 empty empty empty 0 -10 0 12 #fcfcfc #000000 #000000;
#X obj 687 326 loadbang;
#X msg 615 424 0 40;
#X obj 58 226 metro 100;
#X obj 184 188 tgl 19 0 empty empty empty 0 -10 0 12 #fcfcfc #000000 #000000 0 1;
#X obj 787 172 tgl 19 0 empty empty empty 0 -10 0 12 #fcfcfc #000000 #000000 0 1;
#X obj 789 221 metro 100;
#X obj 548 145 hsl 162 19 0 2000 0 0 empty empty Metronome\ time\ in\ ms -2 -10 0 12 #fcfcfc #000000 #000000 0 1;
#X floatatom 483 205 14 0 0 0 - - - 0;
#X obj 786 254 bng 19 250 50 0 empty empty empty 0 -10 0 12 #fcfcfc #000000 #000000;
#X obj 798 365 bng 19 250 50 0 empty empty empty 0 -10 0 12 #fcfcfc #000000 #000000;
#X obj 840 366 bng 19 250 50 0 empty empty empty 0 -10 0 12 #fcfcfc #000000 #000000;
#X obj 883 365 bng 19 250 50 0 empty empty empty 0 -10 0 12 #fcfcfc #000000 #000000;
#X msg 794 405 110;
#X msg 846 400 220;
#X msg 893 403 440;
#X obj 795 492 *~;
#X obj 1261 239 loadbang;
#X msg 1204 375 0 \, 0.4 50;
#X msg 1279 376 0 40;
#X obj 1170 440 line~;
#X obj 800 536 dac~;
#X obj 667 71 bng 19 250 50 0 empty empty empty 0 -10 0 12 #fcfcfc #000000 #000000;
#X text 117 513 When using this patch and switching between sides \, you have to select the message boxes to mute the sound and activate the sound on the other side - IF they are both not running at the same time. Otherwise \, you get the inactive side droning \, which can be interesting \, although a little boring when there is no movement in the sound.;
#X text 881 504 An interesting side note is that you can run the two sides starting at different times for an interesting effect of two note chords that get created randomly.;
#X obj 164 362 bang;
#X obj 208 365 b;
#X obj 929 368 b;
#X obj 979 369 b;
#X msg 161 409 566.67;
#X msg 217 411 696.67;
#X obj 242 367 b;
#X obj 274 369 b;
#X obj 309 369 b;
#X msg 277 410 770;
#X msg 315 410 843.33;
#X msg 380 410 880;
#X obj 55 284 random 8;
#X obj 55 319 sel 0 1 2 3 4 5 6 7, f 53;
#X obj 794 288 random 8;
#X obj 796 327 sel 0 1 2 3 4 5 6 7, f 44;
#X obj 1020 369 b;
#X obj 1054 369 b;
#X obj 1086 369 b;
#X msg 938 402 566.67;
#X msg 993 404 696.67;
#X msg 1053 405 770;
#X msg 1091 403 843.33;
#X msg 1154 405 880;
#X text 657 572 NOW FOR SOMETHING COMPLETELY DIFFERENT! Not really. I just wanted to say that... I will try a ramp envelope in the next iteration of this patch to see how that sounds. Then maybe a different waveform.;
#X text 561 10 [b] works for a [bang]. I think I like the visual better but as book says \, and so I assume it is correct \, it takes less computing power to run it. I will have to ask the question about a [bang] being strictly necessary in some cases.;
#X obj 1011 134 tgl 19 0 empty empty empty 0 -10 0 12 #fcfcfc #000000 #000000 0 1;
#X msg 1017 175 \; pd dsp \$1;
#X msg 1141 167 \; pd dsp \$1;
#X floatatom 561 273 5 0 0 0 - - - 0;
#X text 991 7 I have this section that turns on and off the DSP for Pd. There are two parts and both do the same thing. Once this patch is opened again \, both will appear presented the same way. However \, when created \, you can actually place everything in the message box on one line and it will work as expected. Once opened again \, it will revert to two lines. To get the second line right away \, after the semi-colon \, presse CMD-Enter to get to the second line.;
#X obj 160 461 vline~;
#X obj 46 470 phasor~;
#X obj 797 454 phasor~;
#X msg 689 203 *0.5;
#X msg 473 406 0 \, 0.4 50;
#X connect 0 0 65 0;
#X connect 1 0 65 0;
#X connect 2 0 65 0;
#X connect 3 0 4 0;
#X connect 3 0 4 1;
#X connect 5 0 45 0;
#X connect 6 0 0 0;
#X connect 7 0 1 0;
#X connect 8 0 2 0;
#X connect 9 0 68 0;
#X connect 10 0 64 0;
#X connect 11 0 5 0;
#X connect 12 0 11 0;
#X connect 13 0 14 0;
#X connect 14 0 17 0;
#X connect 15 0 11 1;
#X connect 15 0 14 1;
#X connect 15 0 16 0;
#X connect 15 0 67 0;
#X connect 17 0 47 0;
#X connect 18 0 21 0;
#X connect 19 0 22 0;
#X connect 20 0 23 0;
#X connect 21 0 66 0;
#X connect 22 0 66 0;
#X connect 23 0 66 0;
#X connect 24 0 29 0;
#X connect 24 0 29 1;
#X connect 25 0 26 0;
#X connect 26 0 28 0;
#X connect 27 0 28 0;
#X connect 28 0 24 1;
#X connect 30 0 13 0;
#X connect 30 0 12 0;
#X connect 33 0 37 0;
#X connect 34 0 38 0;
#X connect 35 0 52 0;
#X connect 36 0 53 0;
#X connect 37 0 65 0;
#X connect 38 0 65 0;
#X connect 39 0 42 0;
#X connect 40 0 43 0;
#X connect 41 0 44 0;
#X connect 42 0 65 0;
#X connect 43 0 65 0;
#X connect 44 0 65 0;
#X connect 45 0 46 0;
#X connect 46 0 6 0;
#X connect 46 1 7 0;
#X connect 46 2 8 0;
#X connect 46 3 33 0;
#X connect 46 4 34 0;
#X connect 46 5 39 0;
#X connect 46 6 40 0;
#X connect 46 7 41 0;
#X connect 47 0 48 0;
#X connect 48 0 18 0;
#X connect 48 1 19 0;
#X connect 48 2 20 0;
#X connect 48 3 35 0;
#X connect 48 4 36 0;
#X connect 48 5 49 0;
#X connect 48 6 50 0;
#X connect 48 7 51 0;
#X connect 49 0 54 0;
#X connect 50 0 55 0;
#X connect 51 0 56 0;
#X connect 52 0 66 0;
#X connect 53 0 66 0;
#X connect 54 0 66 0;
#X connect 55 0 66 0;
#X connect 56 0 66 0;
#X connect 59 0 61 0;
#X connect 64 0 3 1;
#X connect 65 0 3 0;
#X connect 66 0 24 0;
#X connect 67 0 62 0;
#X connect 68 0 64 0;
