#N canvas 184 207 1648 845 12;
#X declare -path Example_external;
#X obj 196 595 vu 19 200 empty empty -1 -10 0 12 #404040 #000000 1 0;
#X obj 93 127 tgl 19 0 empty empty empty 0 -10 0 12 #fcfcfc #000000 #000000 0 1;
#X obj 84 208 random 5;
#X text 33 17 This patch is just to see how the VU meter operates. Depening upon what I see \, I might try figuring out by YouTube tutorial \, how to make an envelope to get some movement in the volume.;
#X text 183 191 The tutorials I have see so far place a [bang] between the [metro 500] and the [random 5] objects. But it is not really necessary. I will include visual [bangs] after the [sel] object where it really helps to see where the triggers are going. That also gives the indication of the tempo.;
#X obj 87 284 sel 0 1 2 3 4, f 30;
#X obj 85 328 bng 19 250 50 0 empty empty empty 0 -10 0 12 #fcfcfc #000000 #000000;
#X obj 128 331 bng 19 250 50 0 empty empty empty 0 -10 0 12 #fcfcfc #000000 #000000;
#X obj 168 328 bng 19 250 50 0 empty empty empty 0 -10 0 12 #fcfcfc #000000 #000000;
#X obj 209 331 bng 19 250 50 0 empty empty empty 0 -10 0 12 #fcfcfc #000000 #000000;
#X obj 253 330 bng 19 250 50 0 empty empty empty 0 -10 0 12 #fcfcfc #000000 #000000;
#X msg 81 372 220;
#X msg 131 373 440;
#X msg 176 372 586.67;
#X msg 238 369 696.667;
#X msg 301 369 843.33;
#X obj 87 560 dac~;
#X obj 88 516 *~;
#X msg 492 415 0 30;
#X obj 385 386 loadbang;
#X obj 168 493 vline~;
#X obj 84 414 phasor~;
#X obj 803 327 vsl 19 162 0 0.8 0 0 empty empty empty 0 -9 0 12 #fcfcfc #000000 #000000 0 1;
#X obj 819 530 *~;
#X floatatom 737 530 5 0 0 0 - - - 0;
#X obj 861 455 osc~ 440;
#X obj 815 600 dac~;
#X obj 925 348 pvu~;
#X obj 975 578 vu 19 200 empty empty -1 -10 0 12 #404040 #000000 1 0;
#X text 292 556 Double click this object or right click it to open the included patch. For this particular one \, it is part of the main patch \, this one called p66_vu_meter.pd;
#X text 512 687 It is worth noting that if you create a subpatch by typing the name of the patch without creating it first \, then double clicking it to open the new subpatch \, it will create a new subpatch. This happens even if you using the same name. Notice that I did not create a new subpatch with the attempt to create the same object below and there are no inlets on the object.;
#N canvas 324 455 450 300 vu 0;
#X restore 703 789 pd vu;
#X text 979 347 This object must be retired.;
#X obj 823 94 vu 19 200 empty empty -1 -10 0 12 #404040 #000000 1 0;
#X text 921 106 An interesting thing just happened. When I typed "vu" in an object box and clicked off it \, this VU meter to the left appeared. I will have to avoid "vu" as a Pd patch name to avoid confusion.;
#N canvas 418 365 1104 519 vu_in_patch 0;
#X obj 59 129 env~ 1024;
#X obj 161 111 abs~;
#X obj 161 213 snapshot~;
#X obj 161 256 rmstodb;
#X obj 161 21 inlet~;
#X obj 161 288 - 100;
#X obj 59 287 - 100;
#X obj 59 361 outlet;
#X obj 161 361 outlet;
#X text 344 307 Check the help file of env~ and slop~ for more details., f 31;
#X obj 239 89 expr 1000 / $f1;
#X floatatom 239 117 5 0 0 0 - - - 0;
#X obj 161 146 slop~ 0 0 0 0 1e+09;
#X obj 239 18 inlet;
#X floatatom 239 57 5 0 0 0 - - - 0;
#X text 359 89 convert to hz;
#X text 282 118 hz;
#X text 284 57 peak decay time in ms;
#X obj 59 171 t f b;
#X text 345 132 The env~ object is dedicated to RMS analysis. Its output is in dB (0-100 range \, pd style) but needs to be converted to dBFS (and we do that by simply subtracting 100)., f 31;
#X text 345 225 The slop~ object is used here for peak detection. We need to convert the output to dB with rmstodb and also subtract by 100 to convert it to dBFS., f 31;
#X text 517 16 THIS HAS BEEN TAKEN FROM THE EXAMPLE PROVIDED BY THE HELP FOR THE VU METER. Select Help from right-click on VU Meter \, click the [pd example] object \, and then double click the [pd vu] object to get this patch to the left. Nothing has been changed with it.;
#X text 680 128 Btw \, the [pvu~] object no longer works which is the most often found example on YouTube at this time.;
#X obj 743 176 pvu~;
#X text 656 239 AT THE TIME OF THIS CREATION \, I DO NOT KNOW HOW THIS WORKS.;
#X connect 0 0 18 0;
#X connect 1 0 12 0;
#X connect 2 0 3 0;
#X connect 3 0 5 0;
#X connect 4 0 0 0;
#X connect 4 0 1 0;
#X connect 5 0 8 0;
#X connect 6 0 7 0;
#X connect 10 0 11 0;
#X connect 11 0 12 3;
#X connect 12 0 2 0;
#X connect 13 0 14 0;
#X connect 14 0 10 0;
#X connect 18 0 6 0;
#X connect 18 1 2 0;
#X restore 175 546 pd vu_in_patch;
#X obj 86 169 metro 1000;
#X msg 268 414 0 \, 0.4 800 \, 0.4 \, 0 1000, f 28;
#X text 319 445 This message box and the [vline~] object work as a rudimentary envelope but I am not sure how it works. I know that increasing the second larger number \, in ms \, increases the release time. If the message is [0 \, 0.4 800 \, 0.4 \, 0 1000[ then the second larger number is 1000;
#X obj 469 19 declare -path Example_external, f 32;
#X obj 989 261 print_random_0_to_9;
#X obj 1109 427 print_random_0_to_30;
#X obj 925 542 vu_prepare_from_help;
#X text 1118 477 As I ran into a lot of problems trying to remember how to use the declare statement properly \, I am going to comment on it again. With the declare statement used as above \, the patches used in the object boxes above and to the left only have the patch names (without the .pd extension) in the box. The other one to the far left with "pd " before the patch name is somehow included with this patch. Clicking on it will still open a window to it but you will not see that as a separate patch in the directory or the Externals directory. I am going to make a patch similar to the print_random_0_to_9 object above. I am going to put an inlet in the patch and connect a [bang] to it to test it. For the above external \, I have to click directly on it to bring up the patch. Then I have to click on the [toggle] in the patch. That is not ideal.;
#X obj 1223 714 bng 19 250 50 0 empty empty empty 0 -10 0 12 #fcfcfc #000000 #000000;
#X obj 1224 759 print_random_0_to_61;
#X text 1374 724 That works!;
#X connect 1 0 36 0;
#X connect 2 0 5 0;
#X connect 5 0 6 0;
#X connect 5 1 7 0;
#X connect 5 2 8 0;
#X connect 5 3 9 0;
#X connect 5 4 10 0;
#X connect 6 0 11 0;
#X connect 6 0 37 0;
#X connect 7 0 12 0;
#X connect 7 0 37 0;
#X connect 8 0 13 0;
#X connect 8 0 37 0;
#X connect 9 0 14 0;
#X connect 9 0 37 0;
#X connect 10 0 15 0;
#X connect 10 0 37 0;
#X connect 11 0 21 0;
#X connect 12 0 21 0;
#X connect 13 0 21 0;
#X connect 14 0 21 0;
#X connect 15 0 21 0;
#X connect 17 0 16 0;
#X connect 17 0 35 0;
#X connect 18 0 20 0;
#X connect 19 0 37 0;
#X connect 20 0 17 1;
#X connect 21 0 17 0;
#X connect 22 0 23 0;
#X connect 22 0 24 0;
#X connect 23 0 26 0;
#X connect 23 0 26 1;
#X connect 23 0 42 0;
#X connect 25 0 23 1;
#X connect 35 0 0 0;
#X connect 35 1 0 1;
#X connect 36 0 2 0;
#X connect 37 0 20 0;
#X connect 42 0 28 0;
#X connect 44 0 45 0;
