#N canvas 451 283 450 300 12;
#X obj 139 5 tgl 19 0 empty empty empty 0 -10 0 12 #fcfcfc #000000 #000000 0 1;
#X obj 138 47 metro 500;
#X obj 133 84 bng 19 250 50 0 empty empty empty 0 -10 0 12 #fcfcfc #000000 #000000;
#X obj 128 125 random 31;
#X obj 135 202 print random is 0 to 30;
#X connect 0 0 1 0;
#X connect 1 0 2 0;
#X connect 2 0 3 0;
#X connect 3 0 4 0;
